# File created by Blade
# Date/Time:  Thu Sep 25 19:04:16 2014
# Frame Rate: 120.000 fps
#------------------------------------------------------
:FULLY-SPECIFIED
:DEGREES
1774
root 7.118147 17.175139 -10.637453 60.598896 44.340593 6.219588
Spine 20.834801 27.638060 14.594440
Head -69.489718 -0.772829 -1.316187
LeftShoulder -14.008266 15.467427 21.637621
LeftArm 17.780227 -14.487603 -33.319707
LeftForeArm 8.075012 -0.000000 15.335896
LeftHand -27.354808 -0.000000 10.335130
LeftHandThumb1 -26.253704 0.000000 33.147579
RightShoulder 4.686001 31.493860 -24.437829
RightArm 22.317760 -11.990815 74.772730
RightForeArm -30.055730 -0.000000 17.365550
RightHand -10.538327 0.000000 -51.306717
RightHandThumb1 -24.326973 -0.000000 -32.862282
LeftUpLeg -144.851121 10.336842 -26.401081
LeftLeg 100.601188 -0.000000 -0.000000
LeftFoot -10.795465 -31.060812 -9.080937
LeftToeBase 3.332758 -0.000000 -0.000000
RightUpLeg -11.033240 -61.225167 -37.493197
RightLeg 6.476519 -0.000000 -0.000000
RightFoot -3.246877 -19.924564 40.842555
RightToeBase 7.819885 -0.000000 -0.000000
1775
root 7.167945 17.136931 -10.687563 60.820106 44.000989 6.505994
Spine 20.984740 27.802080 14.828094
Head -69.118468 1.010544 -3.110035
LeftShoulder -14.402653 15.545495 21.698267
LeftArm 17.433032 -14.984051 -33.699433
LeftForeArm 7.936991 -0.000000 15.249418
LeftHand -27.777482 -0.000000 10.966983
LeftHandThumb1 -26.253704 0.000000 33.147579
RightShoulder 4.597967 31.389786 -24.392354
RightArm 21.668439 -11.391098 74.945078
RightForeArm -31.002802 0.000000 18.304084
RightHand -10.541961 -0.000000 -53.147643
RightHandThumb1 -24.326973 -0.000000 -32.862282
LeftUpLeg -144.916409 10.200996 -26.762034
LeftLeg 100.841060 -0.000000 -0.000000
LeftFoot -10.958008 -31.126627 -9.011153
LeftToeBase 3.149577 -0.000000 -0.000000
RightUpLeg -11.064330 -61.465389 -37.945849
RightLeg 6.395562 -0.000000 -0.000000
RightFoot -3.023036 -20.094971 40.327600
RightToeBase 7.915988 -0.000000 -0.000000
1776
root 7.215199 17.102072 -10.740965 61.098489 43.615648 6.903797
Spine 21.173672 27.949730 14.979512
Head -68.771753 2.782644 -4.887289
LeftShoulder -14.737896 15.642497 21.851227
LeftArm 17.115830 -15.639680 -34.178308
LeftForeArm 7.878706 -0.000000 15.221173
LeftHand -28.043470 -0.000000 11.337598
LeftHandThumb1 -26.253704 0.000000 33.147579
RightShoulder 4.529424 31.276130 -24.415521
RightArm 20.873196 -10.167498 75.476281
RightForeArm -32.481961 -0.000000 19.498473
RightHand -10.598893 -0.000000 -54.745697
RightHandThumb1 -24.326973 -0.000000 -32.862282
LeftUpLeg -144.898347 10.035180 -27.153427
LeftLeg 101.034057 -0.000000 -0.000000
LeftFoot -11.111706 -31.220833 -9.088626
LeftToeBase 3.048303 -0.000000 -0.000000
RightUpLeg -10.994263 -61.797428 -38.573139
RightLeg 6.318905 -0.000000 -0.000000
RightFoot -2.655155 -20.108089 39.555002
RightToeBase 8.037888 -0.000000 -0.000000
1777
root 7.261569 17.064870 -10.793245 61.356825 43.261644 7.240600
Spine 21.309055 28.089440 15.159256
Head -68.448931 4.640509 -6.650772
LeftShoulder -15.095732 15.766754 22.009004
LeftArm 16.811726 -16.241164 -34.630371
LeftForeArm 7.814927 -0.000000 15.210162
LeftHand -28.384505 -0.000000 11.557274
LeftHandThumb1 -26.253704 0.000000 33.147579
RightShoulder 4.436214 31.102871 -24.418810
RightArm 20.191608 -8.950497 75.994479
RightForeArm -33.940014 -0.000000 20.724699
RightHand -10.807023 -0.000000 -56.169842
RightHandThumb1 -24.326973 -0.000000 -32.862282
LeftUpLeg -144.936975 9.871338 -27.488826
LeftLeg 101.251761 -0.000000 -0.000000
LeftFoot -11.248017 -31.264635 -9.168083
LeftToeBase 3.000507 -0.000000 -0.000000
RightUpLeg -10.967208 -62.120554 -39.099272
RightLeg 6.204466 -0.000000 -0.000000
RightFoot -2.245633 -20.160130 38.775440
RightToeBase 8.021751 -0.000000 -0.000000
